HIERARCHY
ROOT pelvis
{
  OFFSET 0 100 0
  CHANNELS 6 Xposition Yposition Zposition Zrotation Xrotation Yrotation
  JOINT pelvis_right_femur
  {
    OFFSET -10.78128 -3.44521 -0.5502486
    CHANNELS 3 Zrotation Xrotation Yrotation
    JOINT right_femur_tibia
    {
      OFFSET -0.8047443 -44.0398 -0.1307829
      CHANNELS 3 Zrotation Xrotation Yrotation
      JOINT right_tibia_foot
      {
        OFFSET 3.006224 -47.83518 -5
        CHANNELS 3 Zrotation Xrotation Yrotation
        End Site
        {
          OFFSET 0 -5 15
        }
      }
    }
  }
  JOINT pelvis_left_femur
  {
    OFFSET 10.78128 -3.44521 -0.5502486
    CHANNELS 3 Zrotation Xrotation Yrotation
    JOINT left_femur_tibia
    {
      OFFSET 0.8047443 -44.0398 -0.1307829
      CHANNELS 3 Zrotation Xrotation Yrotation
      JOINT left_tibia_foot
      {
        OFFSET -4.370144 -48.10324 -4.275266
        CHANNELS 3 Zrotation Xrotation Yrotation
        End Site
        {
          OFFSET 0 -5 15
        }
      }
    }
  }
  JOINT pelvis_spine1
  {
    OFFSET 0 6.468898 -3.129235
    CHANNELS 3 Zrotation Xrotation Yrotation
    JOINT spine1
    {
      OFFSET 0 23.15396 4.99043
      CHANNELS 3 Zrotation Xrotation Yrotation
      JOINT spine2
      {
        OFFSET 0 20.79997 -5.064912
        CHANNELS 3 Zrotation Xrotation Yrotation
        JOINT neck
        {
          OFFSET 0 14.38658 9.616178
          CHANNELS 3 Zrotation Xrotation Yrotation
          End Site
          {
            OFFSET 0 20 0
          }
        }
      }
      JOINT right_manubrium
      {
        OFFSET -5.722621 16.35077 3.967754
        CHANNELS 3 Zrotation Xrotation Yrotation
        JOINT right_clavicle
        {
          OFFSET -13.16364 1.694482 -4.693211
          CHANNELS 3 Zrotation Xrotation Yrotation
          JOINT right_humerus
          {
            OFFSET -28.5034 -0.3100689 -2.792744
            CHANNELS 3 Zrotation Xrotation Yrotation
            JOINT right_radius
            {
              OFFSET -25.15693 0.02248979 -1.271978
              CHANNELS 3 Zrotation Xrotation Yrotation
              End Site
              {
                OFFSET -15 0 0
              }
            }
          }
        }
      }
      JOINT left_manubrium
      {
        OFFSET 5.722621 16.35077 3.967754
        CHANNELS 3 Zrotation Xrotation Yrotation
        JOINT left_clavicle
        {
          OFFSET 13.16364 1.694482 -4.693211
          CHANNELS 3 Zrotation Xrotation Yrotation
          JOINT left_humerus
          {
            OFFSET 29.39168 -1.063119 -2.237045
            CHANNELS 3 Zrotation Xrotation Yrotation
            JOINT left_radius
            {
              OFFSET 24.59957 -0.9528479 0.9047498
              CHANNELS 3 Zrotation Xrotation Yrotation
              End Site
              {
                OFFSET 15 -0 -0
              }
            }
          }
        }
      }
    }
  }
}
MOTION
Frames: 21
Frame Time: 0.0416666666667
0 103.5113 0 0.6375699 -1.955388 -0.2424165 4.542051 -16.13763 9.466635 -0 40.80732 -0 -7.0512 -15.84121 -1.979141 -7.177857 9.954834 -24.40325 -0 6.36121 -0 11.91626 -17.39102 30.92684 -3.634331 -3.943776 5.033186 2.262291 10.0093 -6.624083 2.092546 22.6644 6.19077 3.322086 -24.90182 9.768525 5.8176 -20.81495 11.83308 84.82276 32.84921 -16.56126 -0 0 17.66217 -6.133008 6.167154 3.030015 6.359767 -19.48285 -1.350956 -95.88116 24.01866 23.47796 0 0 -11.29916 13.11798 19.30289 -2.106426
0.3867278 104.1368 1.294372 0.5739121 -1.809329 -0.504365 4.694461 -16.75766 9.279277 -0 39.71441 -0 -6.933726 -15.5727 -1.92658 -7.099393 10.23806 -24.09941 -0 6.42652 -0 11.85482 -17.58747 30.63818 -3.535435 -3.998465 5.04361 2.274993 10.02702 -6.702704 2.097658 22.53912 6.182048 3.301986 -24.94875 9.774649 5.617744 -20.79267 11.78622 85.02767 32.50782 -16.80985 -0 0 17.6049 -6.304035 6.249009 2.962338 6.509186 -19.66705 -1.373434 -95.60743 23.59851 23.146 0 0 -11.66146 13.53942 19.17993 -2.654368
0.6843119 104.5688 3.06992 0.4058444 -1.341699 -0.6401965 4.618599 -19.65783 7.64714 -0 35.191 -0 -7.259596 -12.96321 -1.933711 -6.713026 11.52898 -22.47556 -0 6.12015 -0 10.01511 -18.7242 28.00225 -3.306718 -3.512715 4.477714 2.366978 9.90867 -7.181101 1.765817 22.32235 6.563269 3.487498 -24.83206 9.462799 5.222681 -20.16211 11.65223 86.06448 32.39917 -18.31849 -0 0 15.98907 -7.803747 6.956136 3.834689 6.735822 -20.49726 -1.879075 -94.1137 24.08326 21.37655 0 0 -14.53298 12.07467 18.60754 -0.8578005
0.9315817 104.8788 5.183002 0.1905725 -0.5342249 -0.6948796 4.876375 -21.90625 7.03672 -0 31.62101 -0 -7.062993 -11.95257 -1.977819 -6.423135 12.18964 -21.50355 -0 5.983709 -0 8.577984 -19.56804 26.10946 -3.066166 -3.295155 4.275499 2.511643 9.678088 -7.569691 1.577436 21.9368 6.809533 3.564892 -25.02029 9.365201 5.088742 -19.81019 11.53827 86.47301 32.58679 -19.30739 -0 0 15.41878 -8.394561 7.537503 4.1698 6.903388 -20.9043 -1.952973 -93.42477 24.55787 20.66755 0 0 -16.47205 10.85595 18.12529 0.7103587
1.127552 105.0596 7.675224 -0.02711292 0.1604718 -0.6793107 5.152478 -24.03613 6.374964 -0 28.04868 -0 -6.904096 -10.81768 -1.975755 -6.141862 12.92794 -20.46976 -0 6.290542 -0 7.275652 -20.23814 24.29505 -2.784618 -3.149458 4.102336 2.624154 9.521291 -7.915893 1.440164 21.56478 6.984602 3.618318 -25.17894 9.27314 4.824767 -19.47445 11.41654 86.9829 32.43713 -20.26561 -0 0 14.83296 -9.029928 8.049015 4.414625 7.124339 -21.3628 -2.046722 -92.66583 24.57988 19.827 0 0 -18.2022 10.23577 17.65639 1.509124
1.279799 105.1495 10.54871 -0.2761206 0.917766 -0.6060832 5.524309 -25.98846 5.890877 -0 24.6779 -0 -6.721068 -9.842657 -1.952903 -5.870804 13.54685 -19.52538 -0 6.992863 -0 5.990347 -20.73971 22.53605 -2.469412 -3.065815 3.996968 2.741546 9.362009 -8.236776 1.335582 21.15707 7.124887 3.661278 -25.41868 9.212086 4.594067 -19.17835 11.30165 87.41266 32.29429 -21.1407 -0 0 14.3977 -9.506878 8.529999 4.552294 7.326298 -21.75262 -2.065572 -92.07767 24.52234 19.21608 0 0 -19.67776 9.755486 17.21591 2.157694
1.39258 105.1817 13.8273 -0.556202 1.685464 -0.4817813 5.957777 -27.76841 5.473917 -0 21.47912 -0 -6.590343 -8.810927 -1.897751 -5.601792 14.08341 -18.58847 -0 8.242355 -0 4.660798 -21.04213 20.7328 -2.113251 -3.016277 3.924366 2.853977 9.223707 -8.535325 1.249623 20.73461 7.241026 3.707699 -25.707 9.153771 4.370004 -18.8904 11.19642 87.83514 32.11333 -21.9815 -0 0 13.99162 -9.932419 8.995005 4.643575 7.501863 -22.11566 -2.061923 -91.58764 24.3694 18.74615 0 0 -20.95626 9.397827 16.79301 2.67298
1.470762 105.204 17.54115 -0.8725634 2.455617 -0.3110899 6.449645 -29.32432 5.113524 -0 18.52475 -0 -6.547831 -7.656098 -1.809453 -5.330418 14.50056 -17.64339 -0 10.19197 -0 3.231127 -21.09435 18.83223 -1.711981 -2.98333 3.875642 2.961082 9.109282 -8.811427 1.173079 20.30363 7.342079 3.767173 -26.04328 9.085742 4.172897 -18.5974 11.10769 88.2555 31.93386 -22.79757 -0 0 13.57984 -10.32476 9.458948 4.717644 7.624438 -22.44585 -2.048293 -91.20836 24.18414 18.44854 0 0 -22.03404 9.067688 16.38063 3.182533
1.519328 105.2772 21.72771 -1.223727 3.182091 -0.1000977 6.983279 -30.55987 4.777663 -0 15.91412 -0 -6.644211 -6.289468 -1.68457 -5.054039 14.75646 -16.66134 -0 13.06823 -0 1.671896 -20.81416 16.80573 -1.262136 -2.948701 3.840827 3.056443 9.036383 -9.057321 1.09981 19.88383 7.429627 3.847255 -26.40755 8.989753 4.009989 -18.28543 11.04503 88.69362 31.75843 -23.59189 -0 0 13.10886 -10.72236 9.92956 4.805897 7.666494 -22.74544 -2.050905 -90.93559 23.98986 18.32657 0 0 -22.88899 8.718883 15.97414 3.74768
1.543884 105.4817 26.4245 -1.599859 3.78983 0.1390871 7.535114 -31.31007 4.44145 -0 13.80636 -0 -6.933687 -4.652534 -1.520744 -4.772076 14.77338 -15.62158 -0 17.15699 -0 -0.0130981 -20.08903 14.67164 -0.7651195 -2.89271 3.815736 3.130556 9.031368 -9.256668 1.026173 19.5071 7.499067 3.952718 -26.76659 8.844728 3.892709 -17.94617 11.02331 89.16059 31.58695 -24.34748 -0 0 12.53111 -11.15899 10.40857 4.937015 7.591852 -23.01016 -2.099738 -90.77462 23.80678 18.39247 0 0 -23.46908 8.313538 15.57347 4.417417
1.550487 105.9204 31.65554 -1.974737 4.157858 0.381386 8.067839 -31.32204 4.082848 -0 12.41596 -0 -7.467614 -2.737331 -1.31881 -4.48616 14.42332 -14.50876 -0 22.78234 -0 -1.765831 -18.78494 12.52087 -0.232392 -2.791998 3.804122 3.168687 9.134272 -9.381951 0.9511209 19.22413 7.537381 4.082976 -27.06145 8.624675 3.83255 -17.58185 11.06437 89.65595 31.40785 -25.0191 -0 0 11.80818 -11.67145 10.8903 5.138728 7.357338 -23.23192 -2.233255 -90.73307 23.64376 18.65483 0 0 -23.69808 7.830002 15.18338 5.213795
1.544488 106.7166 37.40619 -2.297572 4.117419 0.5812938 8.530566 -30.25375 3.694071 -0 11.97307 -0 -8.265949 -0.6466715 -1.09111 -4.198538 13.5062 -13.31702 -0 30.20621 -0 -3.456462 -16.78367 10.54466 0.3067331 -2.619412 3.825047 3.150716 9.397076 -9.394395 0.8765569 19.10451 7.521988 4.227347 -27.19929 8.301058 3.838799 -17.21715 11.19707 90.15172 31.19911 -25.5201 -0 0 10.93753 -12.29763 11.3626 5.435 6.920106 -23.39772 -2.494709 -90.8177 23.49776 19.11303 0 0 -23.49444 7.261221 14.81121 6.128612
1.527457 107.9948 43.58682 -2.491161 3.479568 0.6712388 8.865039 -27.73417 3.295669 -0 12.59335 -0 -9.263898 1.329813 -0.8776394 -3.906183 11.74448 -12.05031 -0 39.39308 -0 -4.889388 -14.06499 9.033783 0.7977276 -2.347486 3.921382 3.053507 9.871145 -9.250924 0.8070332 19.2234 7.42337 4.359662 -27.05467 7.851147 3.909463 -16.91602 11.45153 90.57197 30.92935 -25.7151 -0 0 9.998155 -13.07617 11.81247 5.84306 6.259599 -23.49267 -2.919607 -91.02291 23.3504 19.74377 0 0 -22.82418 6.612876 14.45853 7.119391
1.49278 109.8288 50.00088 -2.4721 2.124291 0.5773931 9.0182 -23.53822 2.941259 -0 14.03759 -0 -10.25034 2.677666 -0.7608366 -3.587974 8.83397 -10.7168 -0 49.6188 -0 -5.860704 -10.82737 8.306108 1.162589 -1.959424 4.160572 2.859075 10.57347 -8.924036 0.7474481 19.62241 7.2172 4.437696 -26.50144 7.275979 4.015689 -16.79443 11.84206 90.77876 30.56512 -25.43536 -0 0 9.203693 -14.04633 12.2371 6.37492 5.416708 -23.5079 -3.508682 -91.31414 23.16894 20.48891 0 0 -21.78708 5.8946 14.10607 8.119497
1.425214 112.1565 56.36054 -2.201781 0.1437583 0.2552218 8.953069 -17.85646 2.683421 -0 15.49515 -0 -10.87861 2.781956 -0.8372258 -3.189162 4.602353 -9.31859 -0 59.12445 -0 -6.258237 -7.568544 8.547588 1.323752 -1.468886 4.608427 2.568262 11.43708 -8.430674 0.698494 20.25196 6.906742 4.415909 -25.48816 6.622119 4.085446 -17.0042 12.33825 90.5967 30.0802 -24.53425 -0 0 8.90271 -15.24769 12.64892 7.049679 4.531165 -23.45159 -4.196245 -91.61864 22.91303 21.25919 0 0 -20.67189 5.114581 13.70607 9.058679
1.313269 114.7143 62.39371 -1.738268 -2.076526 -0.2844711 8.657387 -11.43061 2.502152 -0 15.76715 -0 -10.85274 1.285824 -1.107341 -2.623737 -0.7596629 -7.85612 -0 65.358 -0 -6.126959 -4.971869 9.656361 1.250199 -0.9377144 5.268036 2.209476 12.2894 -7.842057 0.6549103 20.94956 6.538139 4.272235 -24.12063 5.983833 4.007691 -17.66368 12.84331 89.90258 29.45756 -22.96487 -0 0 9.443136 -16.70557 13.05076 7.90678 3.822694 -23.3474 -4.848042 -91.85189 22.54349 21.97313 0 0 -19.83671 4.30184 13.2153 9.864935
1.170867 117.0914 67.99546 -1.226938 -4.006566 -0.9936367 8.158438 -5.224265 2.281141 -0 14.07063 -0 -10.19939 -1.555522 -1.388373 -1.820076 -6.625683 -6.376163 -0 66.1841 -0 -5.631046 -3.536736 11.26716 0.9902258 -0.4653299 6.031264 1.826561 12.91421 -7.240731 0.6150834 21.51996 6.17891 4.029684 -22.65607 5.463693 3.684868 -18.76546 13.21745 88.72732 28.69815 -20.80669 -0 0 10.93954 -18.37785 13.38561 8.986258 3.475152 -23.19757 -5.314382 -91.99735 22.0437 22.63546 0 0 -19.37523 3.537143 12.67139 10.45287
1.042396 118.9147 73.27157 -0.8211673 -5.282974 -1.824128 7.527344 0.2202521 1.915605 -0 10.79943 -0 -9.303006 -4.986705 -1.434317 -0.7903339 -12.23159 -5.035748 -0 61.25773 -0 -4.969519 -3.231144 12.99116 0.6469455 -0.1399671 6.720159 1.453597 13.16362 -6.653819 0.5958408 21.86768 5.868064 3.747102 -21.37431 5.11818 3.117934 -20.15306 13.35072 87.24149 27.86648 -18.19681 -0 0 13.17938 -20.0857 13.53241 10.26939 3.501648 -22.93042 -5.496772 -92.18286 21.47651 23.40005 0 0 -18.88975 2.90346 12.22058 10.78617
0.9776906 120.0031 78.42493 -0.6072478 -5.858861 -2.737665 6.851577 4.988661 1.439757 -0 7.241847 -0 -8.622065 -8.283803 -1.150999 0.3487283 -17.07365 -4.069886 -0 52.11743 -0 -4.327826 -3.573419 14.61599 0.315335 0.007974218 7.194284 1.107987 13.01082 -6.049328 0.6283878 22.03294 5.597213 3.483652 -20.44112 4.943997 2.42993 -21.5984 13.22106 85.62819 27.1102 -15.26308 -0 0 15.77843 -21.5413 13.39092 11.64786 3.745755 -22.42012 -5.370445 -92.62336 21.00623 24.4887 0 0 -17.7547 2.39108 12.02235 10.96692
1.001482 120.3725 83.62723 -0.5864446 -5.902178 -3.698298 6.200787 9.33012 0.9814419 -0 4.552746 -0 -8.403229 -11.05956 -0.6311619 1.427468 -20.95747 -3.639857 -0 41.06853 -0 -3.837076 -4.055081 16.07504 0.04432789 0.007594626 7.408784 0.801551 12.52957 -5.402746 0.7329378 22.11204 5.342915 3.273101 -19.87358 4.904812 1.775302 -22.89509 12.88655 84.02814 26.56129 -12.17018 -0 0 18.35722 -22.51781 12.96308 12.96958 4.02233 -21.60724 -4.982819 -93.42765 20.77563 25.96197 0 0 -15.66032 1.938749 12.13388 11.14123
1.102322 120.1489 88.97783 -0.6996421 -5.653614 -4.671761 5.615152 13.21128 0.610592 -0 3.143942 -0 -8.630458 -13.13843 -0.03099593 2.292813 -23.80425 -3.719391 -0 30.17606 -0 -3.526399 -4.427665 17.3338 -0.1582848 -0.08341814 7.393975 0.5423707 11.86274 -4.742791 0.9006826 22.18237 5.100913 3.125969 -19.58575 4.955449 1.23324 -23.90326 12.44147 82.59436 26.21851 -9.190039 -0 0 20.58692 -23.00081 12.33978 14.10742 4.237393 -20.59298 -4.450459 -94.46772 20.75563 27.58258 0 0 -12.85802 1.576553 12.49812 11.29341
